<?xml version="1.0" encoding="utf-8"?>
<!-- Generator: Adobe Illustrator 26.5.0, SVG Export Plug-In . SVG Version: 6.00 Build 0)  -->
<svg version="1.1" xmlns="http://www.w3.org/2000/svg" xmlns:xlink="http://www.w3.org/1999/xlink" x="0px" y="0px"
	 viewBox="0 0 152 89.33" style="enable-background:new 0 0 152 89.33;" xml:space="preserve">
<style type="text/css">
	.Arched_x0020_Green{fill:url(#SVGID_1_);stroke:#FFFFFF;stroke-width:0.25;stroke-miterlimit:1;}
	.st0{fill:#FFFFFF;}
</style>
<linearGradient id="SVGID_1_" gradientUnits="userSpaceOnUse" x1="-335.6667" y1="411.6071" x2="-334.9596" y2="410.9">
	<stop  offset="0" style="stop-color:#20AC4B"/>
	<stop  offset="0.9831" style="stop-color:#19361A"/>
</linearGradient>
<g id="Layer_1">
</g>
<g id="Layer_3">
</g>
<g id="Layer_4">
	<g>
		<g>
			<path class="st0" d="M44.35,40.57h-1.29v-1.22h3.79v1.22h-1.29v6.83h-1.21V40.57z"/>
			<path class="st0" d="M49.04,43.99v3.41h-1.21v-8.05h1.21v3.42h1.46v-3.42h1.21v8.05h-1.21v-3.41H49.04z"/>
			<path class="st0" d="M52.81,47.4v-8.06h3.46v1.22h-2.24v2.2h1.64v1.22h-1.64v2.2h2.24v1.22H52.81z"/>
		</g>
		<g>
			<path class="st0" d="M29.88,63.36c-0.96,0-1.77-0.33-2.43-1c-0.67-0.67-1-1.48-1-2.42V52.1c0-0.95,0.34-1.77,1.01-2.43
				c0.67-0.67,1.48-1,2.43-1c0.96,0,1.76,0.34,2.43,1.01c0.66,0.67,1,1.48,1,2.43v1.64h-2.25v-1.68c0-0.34-0.12-0.64-0.37-0.88
				c-0.24-0.24-0.54-0.37-0.88-0.37c-0.34,0-0.64,0.12-0.88,0.37c-0.24,0.24-0.36,0.54-0.36,0.88v7.86c0,0.34,0.12,0.64,0.36,0.88
				c0.24,0.24,0.53,0.36,0.88,0.36c0.34,0,0.64-0.12,0.88-0.36c0.25-0.24,0.37-0.53,0.37-0.88v-1.98h2.25v2.01
				c0,0.95-0.34,1.76-1.01,2.43C31.63,63.03,30.82,63.36,29.88,63.36z"/>
			<path class="st0" d="M38.47,48.64c0.95,0,1.77,0.34,2.43,1.01c0.67,0.67,1,1.48,1,2.43v7.84c0,0.95-0.34,1.77-1.01,2.43
				c-0.67,0.67-1.48,1-2.43,1c-0.95,0-1.76-0.34-2.43-1.01c-0.66-0.67-1-1.48-1-2.43v-7.84c0-0.95,0.34-1.77,1.01-2.43
				C36.73,48.97,37.53,48.64,38.47,48.64z M39.65,52.03c0-0.34-0.12-0.64-0.36-0.88c-0.24-0.24-0.53-0.36-0.88-0.36
				c-0.34,0-0.64,0.12-0.88,0.36c-0.25,0.24-0.37,0.53-0.37,0.88v7.86c0,0.34,0.12,0.64,0.37,0.88c0.24,0.24,0.54,0.36,0.88,0.36
				c0.34,0,0.64-0.12,0.88-0.36c0.24-0.24,0.36-0.53,0.36-0.88V52.03z"/>
			<path class="st0" d="M46.24,48.81l2.87,9.66v-9.66h2.17v14.37h-2.33l-2.98-9.2v9.2h-2.17V48.81H46.24z"/>
			<path class="st0" d="M55.66,63.18l-2.57-14.36h2.27l1.8,11.19l1.81-11.19h2.27l-2.61,14.36H55.66z"/>
			<path class="st0" d="M63.06,63.18V48.81h6.16v2.18h-4v3.92h2.92v2.18h-2.92V61h4v2.18H63.06z"/>
			<path class="st0" d="M73.61,57.16l-2.9-8.35h2.38l1.6,5.16l1.59-5.16h2.39l-2.91,8.35v6.02h-2.17V57.16z"/>
			<path class="st0" d="M80.92,59.88l-0.53,3.3h-2.25l2.44-14.36h2.98l2.41,14.36h-2.28l-0.51-3.3H80.92z M82.06,52.11l-0.8,5.66
				h1.6L82.06,52.11z"/>
			<path class="st0" d="M90.21,48.81l2.87,9.66v-9.66h2.17v14.37h-2.33l-2.98-9.2v9.2h-2.17V48.81H90.21z"/>
			<path class="st0" d="M100.59,63.36c-0.95,0-1.77-0.33-2.43-1c-0.67-0.67-1-1.48-1-2.42V52.1c0-0.95,0.34-1.77,1.01-2.43
				c0.67-0.67,1.48-1,2.43-1c0.96,0,1.76,0.34,2.43,1.01c0.67,0.67,1,1.48,1,2.43v1.64h-2.25v-1.68c0-0.34-0.12-0.64-0.37-0.88
				c-0.24-0.24-0.54-0.37-0.88-0.37c-0.34,0-0.64,0.12-0.88,0.37c-0.24,0.24-0.36,0.54-0.36,0.88v7.86c0,0.34,0.12,0.64,0.36,0.88
				c0.24,0.24,0.53,0.36,0.88,0.36c0.34,0,0.64-0.12,0.88-0.36c0.24-0.24,0.37-0.53,0.37-0.88v-1.98h2.25v2.01
				c0,0.95-0.34,1.76-1.01,2.43C102.34,63.03,101.53,63.36,100.59,63.36z"/>
			<path class="st0" d="M107.96,63.18h-2.17V48.82h2.17V63.18z"/>
			<path class="st0" d="M112.33,48.81l2.87,9.66v-9.66h2.17v14.37h-2.33l-2.98-9.2v9.2h-2.17V48.81H112.33z"/>
			<path class="st0" d="M122.7,63.36c-0.96,0-1.77-0.34-2.44-1.01c-0.67-0.67-1-1.48-1-2.42V52.1c0-0.95,0.34-1.77,1.01-2.43
				c0.67-0.67,1.48-1,2.43-1c0.96,0,1.76,0.34,2.43,1.01c0.66,0.67,1,1.48,1,2.43v1.64h-2.25v-1.68c0-0.34-0.12-0.64-0.37-0.88
				c-0.24-0.24-0.54-0.37-0.88-0.37c-0.34,0-0.64,0.12-0.88,0.37c-0.24,0.24-0.36,0.54-0.36,0.88v7.86c0,0.34,0.12,0.64,0.36,0.88
				c0.24,0.24,0.53,0.36,0.88,0.36c0.34,0,0.64-0.12,0.88-0.36c0.25-0.24,0.37-0.53,0.37-0.87V57.1h-1.2v-2.18h3.45v5.02
				c0,0.95-0.34,1.76-1.01,2.43C124.45,63.03,123.64,63.36,122.7,63.36z"/>
		</g>
		<g>
			<path class="st0" d="M27.57,79.57l-0.64,4.02h-2.75l2.97-17.5h3.63l2.93,17.5h-2.78l-0.62-4.02H27.57z M28.96,70.1L27.98,77h1.96
				L28.96,70.1z"/>
			<path class="st0" d="M43.87,79.24c0.02,1.22-0.3,2.26-0.95,3.13c-0.43,0.59-1.03,1-1.82,1.24c-0.42,0.13-0.91,0.2-1.47,0.2
				c-1.03,0-1.89-0.26-2.57-0.77c-0.57-0.42-1.02-0.99-1.35-1.71c-0.33-0.72-0.52-1.55-0.58-2.48l2.51-0.18
				c0.11,1.02,0.38,1.76,0.81,2.22c0.32,0.35,0.68,0.51,1.09,0.49c0.58-0.02,1.04-0.3,1.38-0.85c0.18-0.27,0.26-0.66,0.26-1.16
				c0-0.73-0.33-1.45-0.99-2.17c-0.52-0.49-1.3-1.23-2.35-2.22c-0.88-0.85-1.49-1.61-1.86-2.28c-0.39-0.75-0.59-1.57-0.59-2.46
				c0-1.59,0.54-2.8,1.61-3.62c0.66-0.49,1.48-0.74,2.46-0.74c0.94,0,1.75,0.21,2.42,0.63c0.52,0.33,0.94,0.78,1.26,1.37
				c0.32,0.59,0.51,1.26,0.58,2.02l-2.53,0.46c-0.08-0.72-0.28-1.28-0.61-1.68c-0.24-0.29-0.59-0.43-1.05-0.43
				c-0.48,0-0.85,0.21-1.1,0.64c-0.2,0.34-0.31,0.77-0.31,1.28c0,0.8,0.34,1.62,1.03,2.44c0.26,0.32,0.65,0.69,1.17,1.12
				c0.62,0.51,1.02,0.87,1.21,1.08c0.65,0.65,1.15,1.29,1.51,1.93c0.17,0.3,0.3,0.57,0.41,0.82C43.73,78.18,43.86,78.74,43.87,79.24
				z"/>
			<path class="st0" d="M54.42,79.24c0.02,1.22-0.3,2.26-0.95,3.13c-0.43,0.59-1.03,1-1.82,1.24c-0.42,0.13-0.91,0.2-1.47,0.2
				c-1.03,0-1.89-0.26-2.57-0.77c-0.57-0.42-1.02-0.99-1.35-1.71c-0.33-0.72-0.52-1.55-0.58-2.48l2.51-0.18
				c0.11,1.02,0.38,1.76,0.81,2.22c0.32,0.35,0.68,0.51,1.09,0.49c0.58-0.02,1.04-0.3,1.38-0.85c0.18-0.27,0.26-0.66,0.26-1.16
				c0-0.73-0.33-1.45-0.99-2.17c-0.52-0.49-1.3-1.23-2.35-2.22c-0.88-0.85-1.49-1.61-1.86-2.28c-0.39-0.75-0.59-1.57-0.59-2.46
				c0-1.59,0.54-2.8,1.61-3.62c0.66-0.49,1.48-0.74,2.46-0.74c0.94,0,1.75,0.21,2.42,0.63c0.52,0.33,0.94,0.78,1.26,1.37
				c0.32,0.59,0.51,1.26,0.58,2.02l-2.53,0.46c-0.08-0.72-0.28-1.28-0.61-1.68c-0.24-0.29-0.59-0.43-1.05-0.43
				c-0.48,0-0.85,0.21-1.1,0.64c-0.21,0.34-0.31,0.77-0.31,1.28c0,0.8,0.34,1.62,1.03,2.44c0.26,0.32,0.65,0.69,1.17,1.12
				c0.62,0.51,1.02,0.87,1.21,1.08c0.65,0.65,1.15,1.29,1.51,1.93c0.17,0.3,0.3,0.57,0.41,0.82C54.28,78.18,54.41,78.74,54.42,79.24
				z"/>
			<path class="st0" d="M60.74,65.87c1.16,0,2.15,0.41,2.97,1.23c0.81,0.82,1.22,1.81,1.22,2.96v9.55c0,1.16-0.41,2.15-1.23,2.97
				c-0.82,0.81-1.81,1.22-2.96,1.22c-1.16,0-2.15-0.41-2.96-1.23c-0.81-0.82-1.21-1.81-1.21-2.96v-9.55c0-1.16,0.41-2.15,1.23-2.97
				C58.62,66.28,59.6,65.87,60.74,65.87z M62.18,70c0-0.42-0.15-0.77-0.44-1.07c-0.29-0.29-0.65-0.44-1.07-0.44
				c-0.42,0-0.78,0.15-1.08,0.44c-0.3,0.29-0.45,0.65-0.45,1.07v9.58c0,0.42,0.15,0.77,0.45,1.07c0.3,0.29,0.66,0.44,1.08,0.44
				c0.42,0,0.78-0.15,1.07-0.44c0.29-0.29,0.44-0.65,0.44-1.07V70z"/>
			<path class="st0" d="M71.4,83.82c-1.16,0-2.15-0.41-2.97-1.22c-0.81-0.81-1.22-1.8-1.22-2.95v-9.55c0-1.16,0.41-2.15,1.23-2.97
				c0.82-0.81,1.81-1.22,2.96-1.22c1.16,0,2.15,0.41,2.96,1.23c0.81,0.82,1.21,1.81,1.21,2.96v2h-2.74v-2.05
				c0-0.42-0.15-0.78-0.45-1.08c-0.3-0.3-0.66-0.45-1.08-0.45c-0.42,0-0.77,0.15-1.07,0.45c-0.29,0.3-0.44,0.66-0.44,1.08v9.58
				c0,0.42,0.15,0.77,0.44,1.07c0.29,0.29,0.65,0.44,1.07,0.44c0.42,0,0.78-0.15,1.08-0.44c0.3-0.29,0.45-0.65,0.45-1.07V77.2h2.74
				v2.44c0,1.16-0.41,2.15-1.23,2.96C73.53,83.41,72.54,83.82,71.4,83.82z"/>
			<path class="st0" d="M80.38,83.59h-2.64v-17.5h2.64V83.59z"/>
			<path class="st0" d="M85.97,79.57l-0.64,4.02h-2.75l2.97-17.5h3.63l2.93,17.5h-2.77l-0.62-4.02H85.97z M87.36,70.1L86.38,77h1.96
				L87.36,70.1z"/>
			<path class="st0" d="M94.68,68.75h-2.81v-2.65h8.24v2.65h-2.79v14.84h-2.64V68.75z"/>
			<path class="st0" d="M104.87,83.59h-2.64v-17.5h2.64V83.59z"/>
			<path class="st0" d="M111.38,65.87c1.16,0,2.15,0.41,2.97,1.23c0.81,0.82,1.22,1.81,1.22,2.96v9.55c0,1.16-0.41,2.15-1.23,2.97
				c-0.82,0.81-1.81,1.22-2.96,1.22c-1.16,0-2.15-0.41-2.96-1.23c-0.81-0.82-1.21-1.81-1.21-2.96v-9.55c0-1.16,0.41-2.15,1.23-2.97
				C109.25,66.28,110.23,65.87,111.38,65.87z M112.82,70c0-0.42-0.15-0.77-0.44-1.07c-0.29-0.29-0.65-0.44-1.07-0.44
				c-0.42,0-0.78,0.15-1.08,0.44c-0.3,0.29-0.45,0.65-0.45,1.07v9.58c0,0.42,0.15,0.77,0.45,1.07c0.3,0.29,0.66,0.44,1.08,0.44
				c0.42,0,0.78-0.15,1.07-0.44c0.29-0.29,0.44-0.65,0.44-1.07V70z"/>
			<path class="st0" d="M120.85,66.08l3.5,11.77V66.08h2.64v17.51h-2.83l-3.63-11.21v11.21h-2.64V66.08H120.85z"/>
		</g>
		<path class="st0" d="M4.06,52.05c0,0,58.14-25.22,67.42-46.62c0,0,8.55,10.53,25.84,21.15c0.53,0.32-0.56-7.43-0.02-7.11
			c0.07,0.04,0.37,0.08,0.82,0.12c0.23,0.02,0.51-2.38,0.81-2.36c0.28,0.02,0.59,0.04,0.9,0.06c0.29,0.02,0.6,2.46,0.91,2.48
			c0.34,0.02,0.68,0.04,1.01,0.06c0.24,0.01,0.48-2.39,0.7-2.38c0.46,0.03,0.88,0.06,1.25,0.09c0.24,0.02,0.45,2.46,0.63,2.48
			c0.28,0.03,0.47,0.06,0.52,0.09c0.64,0.37,0.49,11.25,1.15,11.62c0,0,13.88,12.53,43.4,18.92c0,0-23.43,7.07-77.11-31.49
			C72.29,19.16,15.26,58.81,4.06,52.05"/>
	</g>
</g>
<g id="Layer_2">
</g>
</svg>
