<?xml version="1.0" encoding="utf-8"?>
<!-- Generator: Adobe Illustrator 25.4.1, SVG Export Plug-In . SVG Version: 6.00 Build 0)  -->
<svg version="1.1" id="Layer_1" xmlns="http://www.w3.org/2000/svg" xmlns:xlink="http://www.w3.org/1999/xlink" x="0px" y="0px"
	 viewBox="0 0 104 50" style="enable-background:new 0 0 104 50;" xml:space="preserve">
<style type="text/css">
	.st0{fill:#FFFFFF;stroke:#FFFFFF;stroke-width:0.4417;stroke-miterlimit:10;}
	.st1{fill:none;stroke:#FFFFFF;stroke-width:0.8834;stroke-miterlimit:10;}
	.st2{fill:none;stroke:#FFFFFF;stroke-width:1.3251;stroke-miterlimit:10;}
	.st3{fill:#FFFFFF;}
</style>
<g>
	<g>
		<path class="st0" d="M18.2,10.4c-1.6-1.4-3.8-2.2-5.8-2.2c-5,0-8.8,4.1-8.8,9c0,4.8,3.8,9,8.7,9c2.2,0,4.3-0.8,5.9-2.3v3.3
			c-1.7,1-3.9,1.6-5.8,1.6c-6.3,0-11.5-5-11.5-11.4c0-6.5,5.3-11.7,11.8-11.7c1.9,0,3.9,0.5,5.6,1.5V10.4z"/>
		<path class="st0" d="M51.5,28.3h-2.8V6.1h3.2c6.8,0,8.9,2.3,8.9,6.4c0,4.7-3.6,6.5-7.8,6.5h-1.6V28.3z M51.5,16.5h0.9
			c2.8,0,5.9-0.5,5.9-4.1c0-3.5-3.3-3.9-6-3.9h-0.7V16.5z"/>
		<path class="st0" d="M74.6,10.3C73.7,9,72.7,8.3,71,8.3c-1.8,0-3.7,1.2-3.7,3.1c0,1.7,1.7,2.6,3.1,3.2l1.6,0.6
			c3.1,1.2,5.5,3,5.5,6.7c0,4-3.1,6.9-7.1,6.9c-3.6,0-6.4-2.6-6.8-6.2l2.8-0.6c0,2.4,1.9,4.2,4.3,4.2c2.4,0,4.1-2,4.1-4.3
			c0-2.4-1.9-3.4-3.8-4.2L69.4,17c-2.5-1.1-4.8-2.5-4.8-5.6c0-3.6,3.2-5.7,6.5-5.7c2.5,0,4.5,1.2,5.7,3.3L74.6,10.3z"/>
		<path class="st0" d="M103.6,17.2c0,6.6-5.2,11.5-11.6,11.5c-6.4,0-11.6-5-11.6-11.5c0-6.3,5.3-11.5,11.6-11.5
			C98.3,5.7,103.6,10.9,103.6,17.2z M100.8,17.2c0-4.9-3.6-9-8.8-9s-8.8,4.1-8.8,9c0,5.1,4.1,9,8.8,9
			C96.8,26.2,100.8,22.3,100.8,17.2z"/>
	</g>
	<g>
		<path class="st1" d="M44.6,17.2c0,6.3-5.1,11.3-11.3,11.3c-6.3,0-11.3-5.1-11.3-11.3C21.9,11,27,5.9,33.2,5.9
			C39.5,5.9,44.6,11,44.6,17.2z"/>
		<path class="st1" d="M39.5,17.2c0,3.5-2.8,6.3-6.3,6.3c-3.5,0-6.3-2.8-6.3-6.3c0-3.5,2.8-6.3,6.3-6.3
			C36.7,10.9,39.5,13.8,39.5,17.2z"/>
		<line class="st1" x1="28.7" y1="34.2" x2="37.7" y2="0.2"/>
		<line class="st1" x1="17.9" y1="13" x2="47.7" y2="21.4"/>
	</g>
	<line class="st2" x1="0.8" y1="36.8" x2="104" y2="36.8"/>
	<g>
		<path class="st3" d="M1.7,49.2v-7.3h3.9v0.8h-3v2.1h3v0.8h-3v2.8h3v0.8H1.7z"/>
		<path class="st3" d="M6.9,49.2l2.3-3.9L7,41.8h1l1.6,2.8l1.5-2.8h1l-2.1,3.5l2.3,3.8h-1L9.6,46l-1.7,3.2H6.9z"/>
		<path class="st3" d="M14,49.2v-7.3h3.9v0.8h-3v2.1h3v0.8h-3v2.8h3v0.8H14z"/>
		<path class="st3" d="M26.1,43.6c-0.4-0.4-0.7-0.7-1.1-0.8c-0.4-0.2-0.8-0.3-1.3-0.3c-0.4,0-0.8,0.1-1.1,0.2
			c-0.4,0.2-0.7,0.4-1,0.7c-0.3,0.3-0.5,0.6-0.6,1c-0.1,0.4-0.2,0.8-0.2,1.2c0,0.3,0,0.7,0.1,0.9c0.1,0.3,0.2,0.6,0.4,0.8
			c0.3,0.4,0.7,0.7,1.1,1c0.4,0.2,0.9,0.3,1.4,0.3c0.5,0,0.9-0.1,1.3-0.3c0.4-0.2,0.8-0.5,1.1-0.9v1.2c-0.4,0.3-0.8,0.5-1.2,0.6
			c-0.4,0.1-0.9,0.2-1.3,0.2c-0.4,0-0.8-0.1-1.1-0.2s-0.7-0.3-1-0.5c-0.5-0.4-0.9-0.8-1.2-1.4c-0.3-0.5-0.4-1.1-0.4-1.8
			c0-0.6,0.1-1.1,0.3-1.5c0.2-0.5,0.5-0.9,0.9-1.3c0.4-0.4,0.8-0.6,1.2-0.8c0.5-0.2,1-0.3,1.5-0.3c0.4,0,0.8,0.1,1.2,0.2
			c0.4,0.1,0.8,0.3,1.2,0.6V43.6z"/>
		<path class="st3" d="M28.4,41.8h0.9v4.6c0,0.7,0.2,1.3,0.5,1.6c0.3,0.3,0.8,0.5,1.5,0.5s1.2-0.2,1.5-0.5c0.3-0.3,0.5-0.9,0.5-1.6
			v-4.6h0.9v4.6c0,1-0.2,1.7-0.7,2.2c-0.5,0.5-1.2,0.7-2.1,0.7c-1,0-1.7-0.2-2.1-0.7c-0.5-0.5-0.7-1.2-0.7-2.2V41.8z"/>
		<path class="st3" d="M37.9,49.2v-6.5h-2.1v-0.8h5v0.8h-2.1v6.5H37.9z"/>
		<path class="st3" d="M42.6,49.2v-7.3h0.9v7.3H42.6z"/>
		<path class="st3" d="M48.1,49.4L45,41.8h0.9l2.2,5.6l2.1-5.6h0.9L48.1,49.4z"/>
		<path class="st3" d="M52.7,49.2v-7.3h3.9v0.8h-3v2.1h3v0.8h-3v2.8h3v0.8H52.7z"/>
		<path class="st3" d="M66.1,49.4l-2.3-5.3l-0.9,5H62l1.5-7.6l2.6,6.1l2.6-6.1l1.5,7.6h-0.9l-0.9-5L66.1,49.4z"/>
		<path class="st3" d="M72,49.2v-7.3h3.9v0.8h-3v2.1h3v0.8h-3v2.8h3v0.8H72z"/>
		<path class="st3" d="M81.6,49.4l-2.3-5.3l-0.9,5h-0.9l1.5-7.6l2.6,6.1l2.6-6.1l1.5,7.6h-0.9l-0.9-5L81.6,49.4z"/>
		<path class="st3" d="M87.6,49.2v-7.3h1.5c0.5,0,0.9,0,1.2,0.1c0.3,0.1,0.5,0.1,0.7,0.3c0.2,0.2,0.4,0.4,0.5,0.7
			c0.1,0.3,0.2,0.6,0.2,0.9c0,0.4-0.1,0.7-0.3,1c-0.2,0.3-0.5,0.4-0.8,0.5c0.4,0.1,0.8,0.3,1,0.6c0.3,0.3,0.4,0.7,0.4,1.2
			c0,0.3-0.1,0.6-0.2,0.8c-0.1,0.3-0.3,0.5-0.4,0.7c-0.2,0.2-0.5,0.3-0.8,0.4s-0.8,0.1-1.5,0.1H87.6z M88.4,42.6V45h0.7
			c0.6,0,1.1-0.1,1.3-0.3c0.3-0.2,0.4-0.5,0.4-0.9c0-0.5-0.1-0.8-0.4-1c-0.2-0.2-0.7-0.3-1.3-0.3H88.4z M88.4,45.7v2.7h0.7
			c0.5,0,0.8,0,1-0.1c0.2,0,0.4-0.1,0.5-0.2c0.2-0.1,0.3-0.3,0.4-0.4c0.1-0.2,0.1-0.4,0.1-0.6c0-0.3-0.1-0.5-0.2-0.7
			c-0.1-0.2-0.3-0.4-0.5-0.5c-0.1-0.1-0.3-0.1-0.4-0.2c-0.2,0-0.4,0-0.7,0h-0.3H88.4z"/>
		<path class="st3" d="M94.1,49.2v-7.3H98v0.8h-3v2.1h3v0.8h-3v2.8h3v0.8H94.1z"/>
		<path class="st3" d="M100.2,49.2v-7.3h1.7c0.5,0,0.9,0,1.1,0.1c0.2,0.1,0.4,0.1,0.6,0.3c0.2,0.2,0.4,0.4,0.5,0.7
			c0.1,0.3,0.2,0.6,0.2,1c0,0.6-0.2,1.1-0.5,1.4c-0.3,0.3-0.8,0.5-1.5,0.5h-0.2l2.8,3.5h-1.1l-2.7-3.5h-0.1v3.5H100.2z M101.1,42.5
			V45h0.7c0.7,0,1.1-0.1,1.4-0.3c0.2-0.2,0.3-0.5,0.3-0.9c0-0.5-0.1-0.8-0.4-1c-0.2-0.2-0.7-0.3-1.4-0.3H101.1z"/>
	</g>
</g>
</svg>
