<?xml version="1.0" encoding="UTF-8"?>
<svg id="Layer_1" data-name="Layer 1" xmlns="http://www.w3.org/2000/svg" viewBox="0 0 251 129.48">
  <defs>
    <style>
      .cls-1 {
        fill: #fff;
      }

      .cls-2 {
        fill: none;
        stroke: #fff;
        stroke-miterlimit: 10;
      }

      .cls-3 {
        fill: #023e5c;
      }
    </style>
  </defs>
  <path class="cls-2" d="m22.02.5h228.48v128.48H.5V22.02C.5,10.14,10.14.5,22.02.5Z"/>
  <g>
    <path class="cls-1" d="m42.39,72.12c-.1-.01-.27-.04-.51-.08-.1-.02-.29-.05-.57-.11-2.47-.51-4.85-1.38-7.07-2.58l.08-.45c.56-3.53,1.14-7.17,2.59-10.46.34-.36.59-.79.71-1.27l5.56.18c.48,0,.84.01,1.08.02h0c.45-.03.89-.17,1.26-.43.4.26.87.39,1.35.39.66,0,1.3-.26,1.76-.74,1.01.5,1.98.92,3.2.92h.26c1.36-.11,2.7-.35,4.01-.71,1.29-.31,2.7-.69,4.13-1.12-1.08,1.21-2.25,2.33-3.51,3.35-1.77,1.28-3.66,2.39-5.64,3.3-1.07.53-2.04,1.23-2.88,2.07-.56.62-1.03,1.31-1.41,2.05-.09.16-.18.33-.28.49-.18.31-.38.6-.6.91-.44.57-.8,1.2-1.07,1.87-.29.81-.53,1.66-.77,2.47l-.05.16c-.55-.06-1.09-.13-1.63-.22Zm10.63-9.55c1.97,2.69,4.87,4.28,7.84,5.67-4.24,2.77-9.18,4.24-14.23,4.24-.51,0-1.01-.02-1.51-.05.23-.78.47-1.58.74-2.34.24-.57.55-1.11.93-1.6.23-.31.45-.64.65-.99.1-.17.19-.33.29-.5.33-.66.74-1.27,1.23-1.82.76-.76,1.64-1.39,2.6-1.86l1.46-.74Zm-17.78-29.47c-.12-3.24-.48-6.47-1.09-9.65,9.21-5.01,20.48-4.03,28.71,2.48-.17.17-.32.35-.47.53-.39.55-.7,1.15-.91,1.79-.08.21-.16.42-.25.63l-.34.79c-.58,1.42-1.28,2.78-2.1,4.07-.67.93-1.43,1.78-2.28,2.54-.55.53-1.11,1.08-1.63,1.67-.13.18-.27.36-.42.55l-1.01-.92c-.07-.13-.15-.28-.23-.42-.2-.27-.32-.59-.34-.93.03-.33.51-.71.87-1.01.11-.09.21-.17.3-.25.11-.09.18-.23.18-.37,0-.14-.04-.29-.14-.39-.09-.11-.23-.17-.37-.18-.14,0-.28.04-.39.14-.08.07-.17.15-.27.22-.51.4-1.13.93-1.26,1.67-.04.59.12,1.18.47,1.66l.06.11c-.11.15-.22.32-.33.49-.53.82-.91,1.34-1.43,1.27-1.33-.2-1.61.55-1.88,1.27-.27.72-.47,1.74.9,2.31l.38.16c.5.23,1.01.41,1.54.55.29.07.59.12.9.15l1.23.05c.84.04,1.68.08,2.52.14,1.15.05,2.29.25,3.39.58.67.21,1.09.88,1.41,1.48.52.98,1.02,2.06,1.62,3.5.43.98.93,1.93,1.5,2.84.07.11.14.23.21.35-.27.16-.55.29-.87.42-2.48.99-5.03,1.78-7.63,2.36-1.23.34-2.48.56-3.75.67-1.06.06-1.91-.33-2.88-.78.05-.21.08-.42.08-.64.04-1.08-.7-2.03-1.75-2.25.03-.45.07-.91.11-1.34.11-.83.16-1.67.16-2.5-.01-.45-.04-.91-.07-1.36-.03-.52-.07-1.04-.07-1.57v-.26c0-1.56-.03-3.87-1.75-4.66-1.19-.49-2.47-.68-3.75-.53-.33.03-.66.07-.98.14-.67.12-1.45.26-1.87.03-.28-.14-.38-.59-.44-1.06-.06-.52-.08-1.04-.07-1.56v-.36c0-.73-.05-1.47-.1-2.17l-.05-.85c-.02-.28-.04-.56-.06-.85-.11-.84-.11-1.7,0-2.54.24-1.2.43-2.39.6-3.39.05-.3-.15-.58-.44-.63-.29-.05-.57.15-.62.45-.17,1-.36,2.17-.59,3.36-.14.94-.15,1.89-.03,2.83.02.3.04.58.06.85.02.27.05.56.05.85.05.7.1,1.42.1,2.12v.36c-.01.57.01,1.13.08,1.7.07.47.27,1.48,1.03,1.87.76.39,1.71.22,2.55.07.28-.06.56-.1.84-.13,1.1-.12,2.22.04,3.25.46,1.13.5,1.13,2.4,1.13,3.67v.27c0,.54.04,1.08.07,1.62.03.44.07.9.07,1.32,0,.79-.05,1.58-.15,2.36-.05.46-.09.93-.12,1.41-1.12.16-1.95,1.15-1.92,2.29,0,.39.1.78.28,1.12-.24.14-.52.19-.8.16l-6.27-.22c-.04-.45-.18-.89-.42-1.27-1.55-3.38-1.97-7.18-2.39-10.86l-.08-.62c.32-3.39.46-6.8.42-10.2Zm5.99.53h0c-.03.44,0,.88.07,1.31.03.26.21,1.26.45,1.37.24.11.84,0,1.08,0h2.74v-2.09h-.62v-2.64h-2.76c-.31,0-.43-.06-.59.14-.32.4-.33,1.42-.36,1.9Zm-8.69,20.37c-.07,1.53-.12,3.12-.16,4.73-1.51-.17-2.94-.87-2.94-2.36s1.53-2.24,3.1-2.37Zm1.52.08c.55.08,1.07.27,1.55.55.64.35,1.04,1.02,1.04,1.75,0,1.37-1.3,2.12-2.74,2.33.03-1.58.08-3.12.14-4.63Zm32.76-1.42l5.45-1.37c-.53,2.77-1.5,5.44-2.88,7.89-.67-.98-1.41-1.91-2.21-2.79-.35-.33-.75-.6-1.18-.79-.24-.12-.48-.26-.69-.42-.32-.31-.56-.71-.68-1.14.76-.36,1.46-.82,2.1-1.37.03,0,.06,0,.09,0Zm1.29-3.36c-.56.89-1.21,1.71-1.95,2.45-.29.26-.6.49-.92.7-.08-.12-.15-.25-.22-.37-.55-.87-1.03-1.78-1.45-2.73-.63-1.47-1.14-2.57-1.68-3.59-.2-.4-.45-.78-.74-1.12l-.88-11.19c.59-1.08,1.12-2.2,1.59-3.34l.34-.78c.1-.22.18-.45.27-.67.18-.54.43-1.05.76-1.52.14-.18.3-.35.46-.51,4.81,4.13,7.95,9.89,8.83,16.2l-.34.5c-1.18,1.77-2.4,3.6-3.64,5.37-.15.2-.29.39-.42.59Zm-11.89-6.16c-.85-.06-1.71-.1-2.56-.15l-.89-.04.21-.34c.81-1.37,1.72-2.68,2.72-3.91.48-.56,1.03-1.09,1.56-1.6.73-.67,1.41-1.4,2.03-2.17l.7,8.9-.11-.05c-1.19-.36-2.42-.57-3.67-.63Zm12.77,6.77l.4-.58c1.11-1.59,2.2-3.22,3.27-4.81.04.6.08,1.24.08,1.87,0,1.24-.09,2.49-.27,3.72l-4.41,1.11c.33-.43.63-.89.93-1.31Zm-15.2-10.51c-.62.86-1.19,1.76-1.74,2.64l-.47.75c-.41-.13-.82-.28-1.21-.45l-.37-.17c-.47-.2-.55-.26-.31-.92q.25-.66.72-.59c1.23.18,1.97-.93,2.49-1.75l.13-.2.76.7Zm-19.68,13.58c.08-1.67.21-3.37.34-5.05.26,1.88.69,3.74,1.3,5.54-.52-.25-1.07-.41-1.64-.5Zm-4.88,5.54c1.3,3.19,2.39,6.46,3.24,9.8-4.98-3.21-8.72-8.04-10.61-13.69l.03-.03.32-.22c.54-.32,1.04-.73,1.46-1.2.51.39,1.03.77,1.52,1.2.37.3.73.59,1.1.88.38.29.79.55,1.21.78.32.19.61.36.9.56.05.71.35,1.37.84,1.87v.04Zm-7.66-17.31c-.14-.14-.29-.27-.42-.37.9-4.11,2.77-7.94,5.46-11.16l.1,1.85c.16,3.1.32,6.32.63,9.46l.03.24c.08.76.06,1.02-.24,1.18-.35.14-.73.21-1.11.2-.16,0-.31.03-.45.03-.23.02-.47.07-.74.12-.56.1-1.19.23-1.49,0-.61-.48-1.2-1.03-1.78-1.56Zm-.68.85c.58.53,1.17,1.08,1.8,1.56l.11.07.2,6.61c0,.21.03.43.05.66.05.38.05.77,0,1.14-.11.5-.87,1.01-1.42,1.39l-.1.06c-.66-2.32-1-4.73-1-7.14,0-1.46.12-2.91.37-4.35Zm47.82,18.05l.07.12c-1.8,2.88-4.14,5.38-6.88,7.36-3-1.41-5.98-2.93-7.91-5.51,1.19-.63,2.32-1.35,3.4-2.16,1.33-1.08,2.57-2.26,3.7-3.54.45-.48.91-.96,1.37-1.43.4-.14.79-.29,1.18-.45.19.61.54,1.16,1.02,1.58.26.19.55.36.84.5.33.14.64.33.9.57.84.93,1.61,1.93,2.31,2.97Zm-23.13-5.09c0-.34.13-.68.38-.91s.58-.36.92-.33c.33,0,.65.1.9.31.26.24.4.58.38.93,0,.72-.58,1.31-1.29,1.31s-1.29-.58-1.29-1.31Zm-11.68,4.8c.55-.06,1.09-.2,1.6-.41-.65,1.82-1.15,3.7-1.49,5.6-.03-.69-.06-1.38-.08-2.06-.03-1.05-.03-2.09-.03-3.13Zm-1.61-10.18c.1-.36.19-.72.3-1.06l.4-1.39c-.16,1.9-.31,3.83-.4,5.74-.54.03-1.06.13-1.58.29.23-.41.43-.83.59-1.27.27-.76.48-1.55.69-2.31Zm.12,13.35c.02.65.05,1.31.08,1.96-.55-1.86-1.16-3.73-1.87-5.55.56.23,1.16.37,1.76.42,0,1.04,0,2.1.03,3.16Zm-4.63-31.55c-.05-.97-.1-1.95-.16-2.93,1.51-1.62,3.22-3.04,5.08-4.24.54,2.93.86,5.89.96,8.86.08,3.07-.1,6.19-.34,9.26l-1.68,5.87c-.11.36-.2.73-.3,1.09-.2.75-.41,1.52-.67,2.25-.21.55-.47,1.07-.78,1.57-.13.27-.28.53-.42.81-.45.36-.79.84-.98,1.39l-.5-.3c-.38-.21-.74-.44-1.09-.7-.36-.27-.72-.56-1.08-.85-.56-.45-1.13-.94-1.73-1.36.06-.44.06-.89,0-1.34-.02-.2-.05-.39-.05-.58l-.18-6.3c.38-.02.76-.07,1.13-.16.21-.05.44-.11.63-.11l.42-.03c.53,0,1.06-.1,1.55-.32,1.04-.53.92-1.58.84-2.28l-.03-.22c-.31-3.12-.47-6.32-.63-9.41Z"/>
    <path class="cls-1" d="m88.06,70.14h0c.65,0,1.18.52,1.18,1.17s-.53,1.18-1.18,1.18c-6.18,0-12.07-2.65-16.61-7.47-.34-.35-.45-.87-.26-1.33.19-.42.61-.7,1.07-.7.36,0,.69.16.93.42,4.07,4.34,9.34,6.72,14.87,6.72Zm4.76-47.58h0c-.6-.06-1.04-.59-1.01-1.19.03-.6.53-1.08,1.13-1.09h.14c5.22.57,10.03,3.09,13.48,7.06.37.43.37,1.07,0,1.51-.22.25-.54.39-.87.39-.34,0-.66-.14-.88-.4-3.06-3.52-7.34-5.76-11.99-6.28Zm.11,27.2c-.38-.1-.77-.2-1.14-.28v-5.22c1.02.25,1.58.69,1.82,1.39.19.63.32,1.27.38,1.92.08.79.24,1.56.48,2.31.03.08.06.16.1.24-.54-.09-1.1-.23-1.64-.36Zm2.05-4.59c-.54-1.56-1.94-2.12-3.17-2.39v-5.34c6.55-.01,12.57,3.6,15.64,9.38l-1.01.8c-.11.08-.22.19-.33.29-.15.14-.31.28-.48.39h-.05c-.21-.08-2.68-1.54-3.05-1.78-.16-.11-.37-.12-.54-.03-.17.09-.29.26-.3.45s.08.38.24.49l.17.08-.91.32-.26.08c-.52.1-.95.46-1.15.95-.05.11-.11.28-.18.48-.1.3-.22.6-.36.89-.47.03-1.98,0-3.02,0-.14-.28-.27-.56-.37-.85-.21-.65-.35-1.33-.42-2.01-.08-.74-.23-1.48-.45-2.19Zm1.35,26.62s-.03.02-.04.04c-.85.23-1.71.39-2.59.49-.64.07-.95.21-1.43-.11-.29-.18-.47-.5-.48-.85v-11.54l5.01,11.03c-.17.31-.33.62-.47.93Zm6.03-9.46c.93,1.41,2.43,2.31,3.7,2.95-1.07,1.44-2.36,2.71-3.82,3.76l-1.05-1.49c-.09-.13-.23-.21-.38-.23-.15-.02-.31.03-.42.13l-2.71,2.36-.08.08-5.77-12.7v-6.58c.29.07.58.14.87.21.8.22,1.63.38,2.45.48.61,1.13,1.45,2.12,2.46,2.91.61.44,2.02,1.21,3.16.97.49-.1.91-.41,1.15-.85.26-.53.4-1.11.42-1.7.14-1.75.67-1.89,1.01-1.66.68.45.28,1.6-.24,2.76l-.11.24c-.65,1.3-1.13,2.68-1.41,4.1-.29,1.46-.02,2.98.77,4.24Zm5.98-11.33c.24.12.49.21.73.32.93,4.38.14,8.95-2.22,12.76h-.03c-1.13-.58-2.48-1.37-3.25-2.55-.59-.96-.78-2.1-.55-3.2.26-1.29.7-2.54,1.29-3.72l.11-.24c.45-1.01,1.38-3.39-.47-4.48-3.2-1.87-2.39,3.24-3.33,3.78-.06.03-.08.1-.19.13-.47.09-1.43-.29-1.99-.72-.62-.48-1.16-1.05-1.6-1.7h1.02c.63.04,1.25,0,1.87-.12.39-.22.61-.78.87-1.52.06-.16.1-.3.14-.39.11-.24.12-.25.49-.36l.29-.09,1.4-.5.19-.08c.06-.03.16-.08.13-.08.1.02,1.83,1.04,1.83,1.04l1.27.7c.08.05.18.07.27.07.2,0,.38-.1.47-.28.07-.13.09-.27.05-.41-.04-.14-.13-.26-.26-.33l-.25-.14c.06-.06.08-.08.18-.16.1-.08.19-.17.28-.25l.82-.66c.31.7.58,1.43.81,2.17-.28-.11-.59.03-.7.31s.03.59.31.7Zm-7.02,18.67c-1.12.71-2.32,1.29-3.57,1.73.16-.28.37-.54.61-.76l2.26-1.96.7.99Zm-20.75-23.48l-4.12-3.6c-.5-3.94-1.78-7.75-3.78-11.19l3.22,2.73c.23.19.38.45.42.74.18.67.31,1.35.38,2.04.07.6.18,1.2.31,1.79.28,1.51.99,2.91,2.03,4.04,1.33,1.39,3.19,2.17,5.12,2.15.34,0,.67-.02,1.01-.06,1.28-.16,2.56-.4,3.8-.66v4.67l-6.68-1.84c-.12-.04-.27-.07-.42-.11-.25-.04-.49-.11-.72-.2-.13-.08-.25-.19-.36-.3l-.21-.2Zm1.44,1.86l6.97,1.92v4.97c-4.72-.02-9.24-1.96-12.5-5.36.13-1.1.19-2.2.2-3.31,0-.7-.03-1.4-.08-2.09l3.25,2.84c.06.05.11.1.17.16.18.2.39.36.63.49.31.14.64.24.98.3.14.03.26.06.38.09Zm5.9-27.74c1.15-.06,1.07,1.23,1.07,1.23v21.18c-1.3.27-2.65.53-3.98.7-1.8.27-3.63-.34-4.9-1.65-.86-.94-1.44-2.11-1.66-3.37-.12-.51-.2-1.04-.27-1.6l.08.05c.53.41,1.16.67,1.83.73.44,0,.87-.12,1.24-.35.32-.18.47-.22.61-.18.53.18,1.02.45,1.46.79.24.18.27.2-.13.93l-.1.19c-.18.36-.05.79.31.98.11.05.22.08.34.08.27,0,.52-.15.64-.39l.1-.18c.34-.66.99-1.83-.28-2.78-.57-.45-1.22-.81-1.92-1.04-.56-.13-1.16-.03-1.65.28-.17.12-.38.19-.59.2-.91-.09-2.09-1.05-2.22-1.05-.05-.22-.1-.37-.17-.59-.13-.56-.44-1.07-.88-1.43l-3.28-2.79c-.09-.07-.19-.12-.3-.14,1.12-2.31,2.74-4.35,4.74-5.97l.03.06c.09.19.28.32.5.32.08,0,.15-.01.23-.05.27-.13.39-.45.27-.72l-.13-.29c2.65-1.88,5.77-2.97,9.02-3.16Zm11.04,24.02c-.1.11-.15.25-.14.39s.07.28.18.38c.36.33.73.65,1.1.97.1.08.22.13.35.13.23,0,.43-.14.51-.36.08-.21.02-.46-.16-.6-.37-.31-.73-.63-1.08-.95-.23-.2-.57-.18-.77.04Zm-1.7-2.52h0c-.17-.24-.51-.31-.76-.14-.25.17-.32.51-.15.76.11.15.22.29.35.42l.42.42.26.28c.1.11.25.17.39.17.14,0,.28-.05.38-.15.22-.21.23-.55.02-.77l-.26-.28c-.15-.13-.28-.28-.42-.42-.09-.09-.17-.19-.24-.29Zm-2.51-3.3h0c-.23.19-.27.53-.09.76.27.35.5.73.68,1.14.09.19.28.3.49.31.08,0,.16-.02.24-.06.13-.06.23-.17.28-.31s.04-.29-.02-.42c-.22-.48-.49-.93-.82-1.35-.09-.11-.22-.18-.37-.2-.14-.01-.29.03-.4.12Zm-14.68-10.63c.07,0,.13,0,.2-.02.13-.06.24-.16.29-.3.05-.13.05-.29,0-.42-.09-.21-.18-.43-.28-.64l-.31-.74c-.13-.27-.45-.39-.72-.27-.27.13-.39.45-.27.72l.32.72c.09.19.18.41.27.62.09.2.28.33.5.33Zm2,3.17c.12-.08.2-.21.23-.35.03-.14,0-.29-.09-.41-.2-.29-.42-.61-.59-.93-.05-.08-.1-.17-.15-.27-.09-.17-.27-.28-.46-.29-.19,0-.38.09-.48.25-.1.16-.11.37-.02.54.05.1.11.2.16.3.2.36.43.7.65,1.01.1.15.27.24.45.24.11,0,.22-.04.31-.1Zm2.92,2.3c.04-.14.03-.29-.04-.42-.07-.13-.19-.23-.33-.27l-.54-.17c-.21-.06-.41-.15-.59-.26-.04-.04-.08-.08-.11-.12-.19-.23-.53-.27-.76-.08-.23.19-.27.53-.08.76.09.12.19.22.31.31.29.19.6.34.94.42l.18.06.13.04.23.07c.12.04.25.04.37,0,.15-.06.26-.19.31-.34Zm3.2,1.31c.11-.28-.03-.6-.31-.71l-1.37-.54c-.18-.07-.39-.04-.54.08s-.23.31-.2.51c.03.19.16.36.34.43l1.37.54c.07.02.13.04.2.04.22,0,.42-.14.51-.34Z"/>
    <path class="cls-1" d="m155.77,43.31c-1.09,1.19-2.63,1.87-4.25,1.87-3.81,0-6.57-3-6.57-7.11,0-4.4,3.41-7.11,6.57-7.11,1.61-.02,3.16.64,4.25,1.83v-7.19c0-.12.1-.23.23-.23h2.24c.13,0,.23.1.23.23v18.97c0,.13-.11.23-.23.23h-2.24c-.13,0-.23-.1-.23-.23v-1.26Zm-8.13-5.24c0,2.3,1.05,4.78,4.06,4.79,2.54,0,4.06-2.44,4.06-4.79,0-3-1.52-4.79-4.06-4.79-2.8,0-4.06,2.49-4.06,4.79Zm13.58,6.72c-.06,0-.12-.02-.16-.07-.04-.04-.07-.1-.07-.16v-13.02c0-.12.1-.23.23-.23h2.05c.12,0,.22.09.23.2l.13,1.29c1.08-1.23,2.65-1.91,4.29-1.87,3.38,0,5.1,2.2,5.1,6.55v7.07c0,.13-.11.23-.23.23h-2.24c-.13,0-.23-.1-.23-.23v-6.49c0-1.13,0-2.38-.36-3.3-.39-1.02-1.15-1.49-2.41-1.49-1.56,0-3.87,1.31-3.87,3.12v8.17c0,.13-.11.23-.23.23h-2.24Zm35.63,8.44c.11,0,.2.1.21.21,0,.03,0,.07,0,.1l-5.84,14.03c-1.15,2.66-2.98,4.33-5.16,4.7h0c-.07,0-.13-.03-.18-.08l-1.22-1.49c-.05-.06-.06-.14-.04-.22s.09-.13.16-.15c2.11-.52,3.34-1.68,4.09-3.87l-5.43-12.93c-.04-.07-.04-.15,0-.21.04-.06.12-.1.19-.1h2.34c.1,0,.18.06.21.15l4.04,10.38,4.15-10.38c.03-.09.12-.14.21-.14h2.25Zm-70.71-27.86c5.16,0,9.37,4.44,9.37,9.89s-4.21,9.92-9.37,9.92-9.36-4.46-9.36-9.92,4.2-9.89,9.36-9.89Zm6.67,9.89c0-4.18-2.99-7.58-6.67-7.58s-6.68,3.4-6.68,7.58,3,7.58,6.68,7.58,6.67-3.4,6.67-7.58Zm13.43,17.96c.06,0,.12.02.16.06s.07.1.07.16v13.02c0,.06-.02.12-.07.16s-.1.07-.16.06h-2.05c-.12,0-.22-.09-.23-.2l-.13-1.29c-1.08,1.23-2.65,1.91-4.29,1.87-3.38,0-5.1-2.2-5.1-6.55v-7.07c0-.13.11-.23.23-.23h2.24c.06,0,.12.02.16.07.04.04.07.1.07.16v6.51c0,1.18,0,2.38.36,3.31.4,1.02,1.15,1.49,2.41,1.49,1.56,0,3.87-1.31,3.87-3.12v-8.18c0-.06.02-.12.07-.16.04-.04.1-.07.16-.07h2.24Zm24.75.1c.04.06.05.15.02.22l-5.56,13.01c-.04.08-.12.14-.21.14h-2.15c-.09,0-.17-.05-.21-.14l-5.48-13.02c-.03-.07-.02-.15.02-.21.04-.06.11-.1.19-.1h2.33c.1,0,.18.06.21.15l4,10.25,4.14-10.25c.03-.09.12-.14.21-.14h2.28c.08,0,.15.04.19.1Zm6.42-.47c4,0,6.2,2.63,6.2,7.41,0,.06-.02.12-.06.16-.04.04-.1.07-.16.07h-9.83c.16,2.1,1.25,4.27,3.86,4.27,1.92,0,3.63-.58,4.69-1.59.06-.05.14-.08.21-.06.07.02.13.07.16.14l.65,1.76c.03.09,0,.19-.06.26-1.75,1.5-4.04,1.81-5.65,1.81-3.93,0-6.57-2.86-6.57-7.11s2.77-7.11,6.57-7.11Zm-3.84,5.71h7.3c-.39-2.3-1.5-3.38-3.46-3.38s-3.44,1.31-3.84,3.38Zm-36.05-13.78c-.13,0-.23-.1-.23-.23v-12.99c0-.12.1-.23.23-.23h2.05c.12,0,.22.09.23.2l.12,1.18c.74-1.1,1.98-1.77,3.32-1.77.48,0,.96.07,1.43.2.1.02.18.12.18.22v2.03c0,.08-.04.16-.11.2-.07.04-.16.04-.23,0-.41-.27-.89-.39-1.38-.34-2.91,0-3.13,3.24-3.13,4.23v7.07c0,.06-.02.12-.07.16s-.1.07-.16.06h-2.24Zm85.64-13.83c4,0,6.2,2.62,6.2,7.4,0,.12-.1.23-.23.23h-9.83c.16,2.11,1.26,4.27,3.86,4.27,1.94,0,3.62-.59,4.69-1.6.05-.05.13-.08.21-.06.08.02.14.07.17.14l.65,1.76c.05.1.02.21-.07.28-1.75,1.5-4.04,1.82-5.65,1.82-3.93,0-6.57-2.87-6.57-7.11s2.76-7.11,6.57-7.11Zm-3.84,5.69h7.3c-.39-2.3-1.5-3.38-3.46-3.38s-3.44,1.32-3.84,3.38Zm-92.79,18.67c4.07,1.07,6.13,3.13,6.13,6.13-.02,3.31-2.57,5.62-6.2,5.62-2.71-.03-5.16-.93-6.55-2.42-.07-.08-.07-.2,0-.28l1.17-1.67c.04-.05.1-.09.16-.1.06-.01.13.01.18.06,1.37,1.28,3.16,2.02,5.04,2.09.89.03,1.75-.31,2.38-.94.63-.63.97-1.49.94-2.37.02-2.25-1.77-2.92-3.94-3.51-3.48-.95-5.39-2.94-5.39-5.59,0-3.46,3.12-5.06,6.01-5.06,1.66,0,3.29.47,4.7,1.35.05.04.09.09.1.15.01.06,0,.12-.04.17l-1.15,1.62c-.07.09-.19.12-.3.07-1.01-.6-2.14-.96-3.32-1.05-1.63,0-3.31.85-3.31,2.75-.04,1.83,1.91,2.56,3.38,2.97Zm29.84-2.27c.1.03.18.12.18.23v2.04c0,.08-.05.16-.12.2-.07.04-.16.04-.23,0-.41-.27-.89-.39-1.38-.34-2.9,0-3.13,3.24-3.13,4.23v7.07c0,.06-.02.12-.07.16-.04.04-.1.07-.16.07h-2.24c-.13,0-.23-.1-.23-.23v-13.02c0-.06.02-.12.07-.16.04-.04.1-.07.16-.07h2.05c.12,0,.22.09.23.2l.12,1.18c.74-1.1,1.98-1.77,3.32-1.77.48.01.96.08,1.43.2Zm58.54-11.51c.07.03.13.09.14.17l.58,1.76c.03.09,0,.19-.07.25-1.19.98-2.78,1.48-4.73,1.48-3.98,0-6.76-3.01-6.76-7.14s2.85-7.11,6.79-7.11c.98,0,3.4.19,4.66,1.93.06.08.06.18,0,.26l-.94,1.36c-.04.06-.1.1-.18.1-.07,0-.14-.04-.19-.09-.94-1.16-2.03-1.26-3.36-1.26-3,0-4.06,2.58-4.06,4.79,0,3.04,1.48,4.79,4.06,4.79,1.39.06,2.76-.39,3.85-1.26.06-.05.14-.07.21-.04Zm-33.92,3.65c-3.81,0-6.57-3.01-6.57-7.11,0-4.4,3.41-7.11,6.57-7.11,1.64-.02,3.21.67,4.3,1.89l.13-1.32c.01-.12.11-.21.23-.2h2.05c.13,0,.23.1.23.23v13.04c0,.12-.1.23-.23.23h-2.24c-.13,0-.23-.1-.23-.23v-1.26c-1.09,1.18-2.63,1.86-4.25,1.85Zm-3.88-7.11c0,2.3,1.07,4.78,4.06,4.79,2.54,0,4.06-2.44,4.06-4.79,0-3-1.52-4.79-4.06-4.79-2.8,0-4.06,2.49-4.06,4.79Zm20.27-7.11c3.38,0,5.1,2.2,5.08,6.54v7.07c0,.12-.1.23-.23.23h-2.24c-.13,0-.23-.1-.23-.23v-6.49c0-1.13,0-2.38-.36-3.3-.4-1.02-1.15-1.49-2.41-1.49-1.55,0-3.87,1.31-3.87,3.12v8.17c0,.06-.02.12-.07.16-.04.04-.1.07-.16.07h-2.24c-.13,0-.23-.1-.23-.23v-13.01c0-.12.1-.23.23-.23h2.07c.12,0,.22.09.23.2l.13,1.29c1.08-1.23,2.66-1.91,4.3-1.87Z"/>
  </g>
  <rect class="cls-1" x=".5" y="91.75" width="249.64" height="37.22"/>
  <g>
    <path class="cls-3" d="m29.66,99.28h3.32v15.94h7.8v2.81h-11.12v-18.75Z"/>
    <path class="cls-3" d="m42.67,99.63c0-1.12.86-1.89,2.04-1.89s2.03.77,2.03,1.89-.86,1.86-2.03,1.86-2.04-.78-2.04-1.86Zm.37,4.33h3.29v14.07h-3.29v-14.07Z"/>
    <path class="cls-3" d="m55.97,103.61c1.81,0,3.18.72,4.13,1.63l-1.58,2.09c-.75-.66-1.49-1.03-2.38-1.03-2.26,0-3.84,1.86-3.84,4.7s1.55,4.67,3.76,4.67c1.15,0,2.12-.57,2.9-1.21l1.38,2.09c-1.32,1.18-3.01,1.81-4.61,1.81-3.84,0-6.79-2.69-6.79-7.37s3.29-7.4,7.05-7.4Z"/>
    <path class="cls-3" d="m67.24,103.61c3.81,0,5.82,2.75,5.82,6.68,0,.63-.06,1.2-.14,1.55h-8.94c.29,2.55,1.89,3.98,4.16,3.98,1.2,0,2.24-.37,3.27-1.03l1.12,2.06c-1.35.89-3.04,1.52-4.81,1.52-3.9,0-6.94-2.72-6.94-7.37s3.18-7.4,6.48-7.4Zm2.95,6.13c0-2.24-.95-3.58-2.87-3.58-1.66,0-3.1,1.23-3.38,3.58h6.25Z"/>
    <path class="cls-3" d="m75.49,103.95h2.72l.23,1.89h.11c1.26-1.23,2.69-2.24,4.61-2.24,3.01,0,4.33,2.03,4.33,5.59v8.83h-3.29v-8.4c0-2.32-.66-3.18-2.21-3.18-1.23,0-2.03.6-3.21,1.75v9.83h-3.29v-14.07Z"/>
    <path class="cls-3" d="m90.97,114.3c1.26.97,2.46,1.58,3.9,1.58,1.52,0,2.24-.72,2.24-1.69,0-1.17-1.52-1.69-3.01-2.26-1.86-.69-3.96-1.75-3.96-4.1s1.98-4.21,5.13-4.21c1.95,0,3.53.8,4.67,1.69l-1.52,2.01c-.98-.71-1.98-1.2-3.1-1.2-1.4,0-2.06.66-2.06,1.55,0,1.12,1.4,1.55,2.92,2.09,1.92.72,4.04,1.63,4.04,4.27,0,2.41-1.92,4.36-5.48,4.36-1.92,0-3.96-.83-5.33-1.95l1.55-2.12Z"/>
    <path class="cls-3" d="m108.02,103.61c3.81,0,5.82,2.75,5.82,6.68,0,.63-.06,1.2-.14,1.55h-8.94c.29,2.55,1.89,3.98,4.16,3.98,1.2,0,2.24-.37,3.27-1.03l1.12,2.06c-1.35.89-3.04,1.52-4.82,1.52-3.9,0-6.94-2.72-6.94-7.37s3.18-7.4,6.48-7.4Zm2.95,6.13c0-2.24-.95-3.58-2.87-3.58-1.66,0-3.1,1.23-3.38,3.58h6.25Z"/>
    <path class="cls-3" d="m121.38,103.61c1.6,0,2.61.6,3.7,1.55l-.11-2.27v-5.1h3.3v20.24h-2.72l-.23-1.52h-.11c-1.03,1.03-2.47,1.86-3.98,1.86-3.53,0-5.79-2.72-5.79-7.37s2.89-7.4,5.96-7.4Zm.63,12.04c1.09,0,2-.49,2.95-1.58v-6.56c-.98-.86-1.92-1.18-2.87-1.18-1.8,0-3.27,1.69-3.27,4.64s1.15,4.67,3.18,4.67Z"/>
    <path class="cls-3" d="m137.18,99.28h6.3c4.1,0,7.14,1.43,7.14,5.79s-3.1,6.08-7.14,6.08h-2.98v6.88h-3.32v-18.75Zm6.05,9.2c2.78,0,4.13-1.12,4.13-3.41s-1.41-3.12-4.13-3.12h-2.72v6.53h2.72Z"/>
    <path class="cls-3" d="m159.73,109.03c-.03-1.49-.66-2.75-2.55-2.75-1.4,0-2.72.63-3.96,1.38l-1.2-2.21c1.55-.98,3.53-1.83,5.76-1.83,3.52,0,5.25,2.15,5.25,6.08v8.34h-2.69l-.26-1.55h-.09c-1.26,1.06-2.69,1.89-4.36,1.89-2.47,0-4.19-1.66-4.19-4.13,0-3.01,2.52-4.59,8.28-5.22Zm-3.07,6.77c1.15,0,2.03-.57,3.07-1.55v-3.15c-3.81.49-5.07,1.49-5.07,2.89,0,1.26.83,1.81,2.01,1.81Z"/>
    <path class="cls-3" d="m166.33,103.95h2.72l.23,2.49h.11c1-1.83,2.49-2.84,3.98-2.84.72,0,1.18.09,1.61.29l-.57,2.87c-.49-.14-.86-.23-1.46-.23-1.12,0-2.47.77-3.33,2.89v8.6h-3.29v-14.07Z"/>
    <path class="cls-3" d="m176.79,106.56h-2.01v-2.47l2.18-.14.4-3.84h2.75v3.84h3.58v2.61h-3.58v6.71c0,1.66.63,2.47,1.98,2.47.49,0,1.06-.14,1.46-.31l.57,2.44c-.77.26-1.75.52-2.87.52-3.27,0-4.47-2.06-4.47-5.1v-6.71Z"/>
    <path class="cls-3" d="m185.93,103.95h2.72l.23,1.89h.11c1.26-1.23,2.69-2.24,4.61-2.24,3.01,0,4.33,2.03,4.33,5.59v8.83h-3.29v-8.4c0-2.32-.66-3.18-2.21-3.18-1.23,0-2.03.6-3.21,1.75v9.83h-3.29v-14.07Z"/>
    <path class="cls-3" d="m206.83,103.61c3.81,0,5.82,2.75,5.82,6.68,0,.63-.06,1.2-.14,1.55h-8.94c.29,2.55,1.89,3.98,4.16,3.98,1.2,0,2.24-.37,3.27-1.03l1.12,2.06c-1.35.89-3.04,1.52-4.82,1.52-3.9,0-6.94-2.72-6.94-7.37s3.18-7.4,6.48-7.4Zm2.95,6.13c0-2.24-.95-3.58-2.87-3.58-1.66,0-3.1,1.23-3.38,3.58h6.25Z"/>
    <path class="cls-3" d="m215.08,103.95h2.72l.23,2.49h.11c1-1.83,2.49-2.84,3.98-2.84.72,0,1.18.09,1.61.29l-.57,2.87c-.49-.14-.86-.23-1.46-.23-1.12,0-2.47.77-3.33,2.89v8.6h-3.29v-14.07Z"/>
  </g>
</svg>