<?xml version="1.0" encoding="utf-8"?>
<!-- Generator: Adobe Illustrator 25.4.1, SVG Export Plug-In . SVG Version: 6.00 Build 0)  -->
<svg version="1.1" id="Layer_1" xmlns="http://www.w3.org/2000/svg" xmlns:xlink="http://www.w3.org/1999/xlink" x="0px" y="0px"
	 viewBox="0 0 166 50" style="enable-background:new 0 0 166 50;" xml:space="preserve">
<style type="text/css">
	.st0{fill:#FFFFFF;}
</style>
<g>
	<path class="st0" d="M73.8,25.8c-1.4,0-1.7,2.1-1.7,4c0,2,0.3,4,1.7,4c1.5,0,1.7-2,1.7-4C75.6,27.8,75.3,25.8,73.8,25.8 M73.8,35.8
		c-3.2,0-4.5-2.7-4.5-5.9c0-3.2,1.3-5.9,4.5-5.9c3.2,0,4.5,2.7,4.5,5.9C78.3,33.1,77,35.8,73.8,35.8 M90.1,35.6v-6.3
		c0-0.7-0.4-1.2-1.3-1.2c-0.4,0-0.8,0.1-1.1,0.4v7.1h-2.6v-6.3c0-0.7-0.5-1.2-1.4-1.2c-0.4,0-0.7,0-1,0.2v7.4h-2.6v-8.5
		c1-0.5,2.1-0.7,3.6-0.7c1.5,0,2.3,0.4,2.8,0.9c0.6-0.5,1.5-0.9,3-0.9c2.1,0,3.2,1.3,3.2,2.9v6.3H90.1z M98.2,28
		c-0.3,0-0.6,0.1-0.9,0.2V34c0.3,0.1,0.5,0.1,0.8,0.1c1.3,0,1.9-1.2,1.9-3.2C100,29.2,99.6,28,98.2,28 M98,35.7
		c-1.5,0-2.6-0.3-3.3-0.7V22.5h2.6v4.3c0.5-0.2,1.1-0.4,1.7-0.3c2.1,0,3.6,1.7,3.6,4.4C102.6,34,100.9,35.7,98,35.7 M108,35.8
		c-2.5,0-3.8-0.9-3.8-3.1v-6h2.6v6.2c0,0.6,0.4,1.2,1.2,1.2c0.4,0,0.7-0.1,1.1-0.2v-7.2h2.6v8.5C110.9,35.5,109.7,35.8,108,35.8
		 M118.7,28.1c-0.2-0.1-0.5-0.1-0.7-0.1c-1.4,0-2,1.2-2,3.1c0,2,0.6,3.1,1.9,3.1c0.3,0,0.5,0,0.8-0.1V28.1z M117.8,35.8
		c-2.7,0-4.4-1.6-4.4-4.6c0-2.9,1.6-4.6,4-4.6c0.5,0,1,0.1,1.3,0.1v-4.2h2.6v12.6C120.4,35.5,119.4,35.8,117.8,35.8 M125.3,35.8
		c-0.9,0-1.8-0.2-2.6-0.7l0.7-1.7c0.3,0.3,1,0.5,1.6,0.5c0.7,0,1.1-0.4,1.1-1c0-0.6-0.3-0.9-1.2-1.3c-1.7-0.7-2-1.6-2-2.5
		c0-1.5,1.2-2.8,3-2.8c1.1,0,1.9,0.2,2.6,0.7l-0.6,1.5c-0.4-0.3-0.9-0.5-1.4-0.5c-0.7,0-1,0.4-1,0.9c0,0.6,0.5,0.9,1.2,1.2
		c1.7,0.7,2.1,1.6,2.1,2.6C128.7,34.5,127.5,35.8,125.3,35.8 M140.4,35.6v-6.3c0-0.7-0.4-1.2-1.3-1.2c-0.4,0-0.8,0.1-1.1,0.4v7.1
		h-2.6v-6.3c0-0.7-0.5-1.2-1.4-1.2c-0.4,0-0.7,0-1,0.2v7.4h-2.6v-8.5c1-0.5,2.1-0.7,3.6-0.7c1.5,0,2.3,0.4,2.8,0.9
		c0.6-0.5,1.5-0.9,3-0.9c2.1,0,3.2,1.3,3.2,2.9v6.3H140.4z M149.6,30.9c-1.6,0.1-2.6,0.5-2.6,2c0,1,0.6,1.5,1.6,1.5
		c0.3,0,0.6-0.1,0.9-0.2L149.6,30.9z M148.5,35.8c-2.6,0-3.9-1-3.9-2.8c0-2.3,2.3-3,5-3.3v-0.4c0-0.9-0.6-1.2-1.6-1.2
		c-0.9,0-1.8,0.3-2.3,0.6l-0.6-1.5c0.6-0.3,1.8-0.7,3.4-0.7c2,0,3.5,0.8,3.5,3.3v5.4C151.3,35.5,150.1,35.8,148.5,35.8 M159,35.6
		v-6.3c0-0.6-0.3-1.3-1.3-1.3c-0.4,0-0.7,0.1-1.1,0.2v7.4H154v-8.5c1.2-0.5,2.5-0.7,3.8-0.7c2.8,0,3.9,1.2,3.9,2.9v6.3H159z
		 M73.9,9.2v9.7h-2.7V9.2h-2V7.4h6.7v1.8H73.9z M82.4,18.9v-6.3c0-0.7-0.3-1.3-1.3-1.3c-0.4,0-0.8,0.1-1.1,0.3v7.3h-2.6V7.4H80v2.7
		c0.6-0.3,1.3-0.4,1.9-0.4c2.3,0,3.1,1.3,3.1,2.8v6.3H82.4z M90.6,11.3c-1.1,0-1.7,0.9-1.7,2.8l3.1-0.5C92.1,12,91.6,11.3,90.6,11.3
		 M89.1,15.3c0.2,1.3,0.9,2,2.2,2c1,0,1.9-0.2,2.3-0.5l0.6,1.6c-1,0.5-2.1,0.7-3.2,0.7c-2.8,0-4.3-1.8-4.3-4.7
		c0-2.8,1.5-4.6,4.1-4.6c2.6,0,3.9,1.8,3.8,4.8L89.1,15.3z M103.8,8.8c-0.3,0-0.6,0-0.8,0.1V13l0.4,0c1.7,0.1,2.3-0.6,2.3-2.1
		C105.7,9.5,105.2,8.8,103.8,8.8 M103.3,14.6l-0.4,0v4.3h-2.7v-11c0.8-0.4,2-0.7,3.5-0.7c3.2,0,4.4,1.6,4.4,3.7
		C108.2,13.1,106.8,14.9,103.3,14.6 M114.1,11.6c-0.5-0.2-1.2-0.3-1.7,0v7.3h-2.6v-8.5c1-0.5,2.4-0.8,4.8-0.6L114.1,11.6z
		 M119.1,11.3c-1.2,0-1.4,1.4-1.4,3c0,1.6,0.2,2.9,1.4,2.9c1.2,0,1.4-1.3,1.4-2.9C120.5,12.7,120.3,11.3,119.1,11.3 M119.1,19
		c-2.6,0-4-2-4-4.7c0-2.7,1.4-4.7,4-4.7c2.6,0,4,2,4,4.7C123.1,17,121.7,19,119.1,19 M128.1,11.3c-0.3,0-0.5,0-0.8,0.1v6
		c0.2,0.1,0.4,0.1,0.7,0.1c1.4,0,2-1.1,2-3.1S129.5,11.3,128.1,11.3 M128.6,19c-0.4,0-0.9,0-1.3-0.2v3.6h-2.6V10.4
		c0.8-0.4,1.8-0.7,3.4-0.7c2.7,0,4.4,1.6,4.4,4.6C132.6,17.2,131,19,128.6,19 M137.9,11.3c-1.1,0-1.7,0.9-1.7,2.8l3.1-0.5
		C139.4,12,138.8,11.3,137.9,11.3 M136.4,15.3c0.2,1.3,0.9,2,2.2,2c1,0,1.9-0.2,2.3-0.5l0.6,1.6c-1,0.5-2.1,0.7-3.2,0.7
		c-2.8,0-4.3-1.8-4.3-4.7c0-2.8,1.5-4.6,4.1-4.6c2.6,0,3.9,1.8,3.8,4.8L136.4,15.3z M147.8,11.6c-0.5-0.2-1.2-0.3-1.7,0v7.3h-2.6
		v-8.5c1-0.5,2.4-0.8,4.8-0.6L147.8,11.6z M152.7,19c-1.9,0-2.7-1.2-2.7-2.6v-4.8h-1V9.9h1V8l2.6-0.7v2.6h1.4v1.7h-1.4v4.6
		c0,0.7,0.2,1,0.8,1c0.2,0,0.3,0,0.6-0.1v1.6C153.5,19,153.1,19,152.7,19 M159,22.5h-2.7l1.4-3.6l-2.9-9h2.8l1.2,5.2
		c0.2,0.8,0.2,1.4,0.2,1.4h0c0,0,0.1-0.7,0.2-1.4l1.4-5.2h2.4L159,22.5z M63.2,43.7l-3.8-5.6H34.7c-1.5,0-2.6-0.6-3.2-1.7
		c-0.6-1.1-0.4-2.4,0.4-3.6l12-17.6L36,3.6c-1.8-2.7-4.8-2.7-6.7,0L1.9,43.7c-1.8,2.7-0.7,4.9,2.6,4.9h56.1
		C63.9,48.6,65.1,46.4,63.2,43.7"/>
	<path class="st0" d="M49.1,13.3c0.5,0,0.9,0.3,1.2,0.8L63.9,34c0.3,0.5,0.4,0.9,0.3,1.2c-0.1,0.3-0.6,0.4-1.1,0.4H35.2
		c-0.6,0-1-0.2-1.1-0.4c-0.1-0.3,0-0.7,0.3-1.2l11.2-16.4l2.4-3.5C48.2,13.6,48.7,13.3,49.1,13.3 M64.8,33.4L51.2,13.5
		c-0.5-0.7-1.2-1.2-2.1-1.2c-0.2,0-0.3,0-0.5,0.1c-0.7,0.2-1.2,0.6-1.6,1.2l-2.2,3.2L33.4,33.4c-0.6,0.8-0.7,1.6-0.3,2.3
		c0.3,0.6,1.1,1,2.1,1H63c0.8,0,1.5-0.3,1.9-0.7c0.1-0.1,0.1-0.2,0.2-0.2C65.5,35,65.3,34.2,64.8,33.4"/>
</g>
</svg>
