<?xml version="1.0" encoding="utf-8"?>
<!-- Generator: Adobe Illustrator 25.4.1, SVG Export Plug-In . SVG Version: 6.00 Build 0)  -->
<svg version="1.1" id="Layer_1" xmlns="http://www.w3.org/2000/svg" xmlns:xlink="http://www.w3.org/1999/xlink" x="0px" y="0px"
	 viewBox="0 0 50 50" style="enable-background:new 0 0 50 50;" xml:space="preserve">
<style type="text/css">
	.st0{fill:#FFFFFF;}
</style>
<path class="st0" d="M27,34.8c-0.4-0.1-0.7-0.2-1.1-0.3v6.5h-19c0-1.9,0-15.9,0-15.9c0-0.6-0.5-1.1-1.1-1.1c0,0-1.1,0-2.2,0
	c2.7-2.7,11.6-11.6,12.8-12.8l6.6,6.6c0.3-0.2,0.6-0.4,0.9-0.7c0.3-0.2,0.6-0.4,0.9-0.6l-7.7-7.7c-0.4-0.4-1.1-0.4-1.5,0L0.3,24.2
	C0,24.6-0.1,25,0.1,25.4c0.2,0.4,0.6,0.7,1,0.7c0,0,2.5,0,3.8,0c0,1.9,0,15.9,0,15.9c0,0.6,0.5,1.1,1.1,1.1H27
	c0.6,0,1.1-0.5,1.1-1.1c0,0,0-3.4,0-7C27.7,34.9,27.4,34.9,27,34.8z"/>
<path class="st0" d="M44.6,37.5L37,29.7c0.8-1.3,1.2-2.8,1.2-4.4c0-4.8-3.9-8.8-8.8-8.8c-4.8,0-8.8,3.9-8.8,8.8
	c0,4.8,3.9,8.8,8.8,8.8c1.7,0,3.3-0.5,4.7-1.4l7.5,7.8c0.1,0.1,0.3,0.2,0.5,0.2c0.2,0,0.3-0.1,0.5-0.2l2-2
	C44.9,38.2,44.9,37.8,44.6,37.5z M22.8,25.2c0-3.7,3-6.6,6.6-6.6c3.7,0,6.6,3,6.6,6.6c0,3.7-3,6.6-6.6,6.6
	C25.8,31.9,22.8,28.9,22.8,25.2z"/>
<path class="st0" d="M26,29.6c0.3,0.3,0.7,0.5,1.1,0.7c0.3,0.2,0.7,0.3,1.1,0.4v-1.9L26,27.6C26,28.2,26,28.9,26,29.6z"/>
<path class="st0" d="M32.6,24.2l-4.4-4.4c-0.4,0.1-0.8,0.2-1.1,0.4c-0.3,0.2-0.6,0.3-0.9,0.6c1.3,1.3,2.5,2.5,3.2,3.2
	c-1.1,0-2.3,0-2.3,0c-0.6,0-1.1,0.5-1.1,1.1c0,0,0,0.7,0,1.7l2.1,1.1v-1.8c1.3,0,3.8,0,3.8,0c0.4,0,0.8-0.3,1-0.7
	c0.1-0.1,0.1-0.3,0.1-0.4C32.9,24.7,32.8,24.5,32.6,24.2z"/>
<g>
	<path class="st0" d="M5.6,48c0.1,0.5,0.5,0.6,0.9,0.6c0.2,0,0.6,0,0.6-0.3c0-0.3-0.4-0.4-0.6-0.4c-1-0.2-2.1-0.4-2.1-1.7
		c0-0.5,0.2-1,0.7-1.3c0.4-0.3,1-0.4,1.5-0.4c0.9,0,1.8,0.4,2.1,1.3l-1.3,0.4c-0.1-0.4-0.4-0.5-0.8-0.5C6.3,45.7,6,45.8,6,46
		c0,0.3,0.4,0.3,0.6,0.4c0.5,0.1,1,0.2,1.5,0.4c0.5,0.3,0.8,0.7,0.8,1.3c0,1.2-1.2,1.7-2.3,1.7c-1.1,0-2-0.4-2.3-1.6L5.6,48z"/>
	<path class="st0" d="M13.2,48.5c-0.2,0.9-1.1,1.4-2,1.4c-0.6,0-1.1-0.1-1.5-0.5C9.3,49,9,48.5,9,47.9c0-0.5,0.2-1.1,0.6-1.4
		c0.4-0.4,1-0.6,1.5-0.6c1.3,0,2.1,0.8,2.1,2.1v0.2h-2.6c0,0.4,0.1,0.7,0.6,0.7c0.3,0,0.5-0.1,0.6-0.5L13.2,48.5z M11.7,47.4
		c0-0.4-0.1-0.7-0.5-0.7c-0.4,0-0.5,0.3-0.5,0.7H11.7z"/>
	<path class="st0" d="M16,49.8c0-0.2-0.1-0.4-0.1-0.5c-0.3,0.4-0.7,0.6-1.3,0.6c-0.7,0-1.3-0.4-1.3-1.2c0-0.6,0.5-1,1-1.2
		c0.5-0.1,1-0.2,1.5-0.2v0c0-0.3-0.1-0.5-0.4-0.5c-0.3,0-0.5,0.1-0.6,0.4l-1.4-0.1c0.2-1,1.1-1.2,2-1.2c0.4,0,1,0.1,1.4,0.3
		c0.5,0.4,0.4,0.8,0.4,1.4v1.3c0,0.3,0,0.6,0.1,0.8H16z M15.9,48c-0.4,0-1,0.1-1,0.6c0,0.2,0.2,0.4,0.4,0.4
		C15.9,49,15.9,48.5,15.9,48L15.9,48z"/>
	<path class="st0" d="M19,46.7c0.1-0.5,0.4-0.9,1-0.9l0.2,0v1.3c-0.1,0-0.2,0-0.3,0c-0.2,0-0.5,0-0.6,0.3c-0.1,0.2-0.1,0.4-0.1,0.7
		v1.7h-1.5V46H19L19,46.7L19,46.7z"/>
	<path class="st0" d="M24.3,48.3c-0.1,1-0.8,1.5-1.8,1.5c-0.6,0-1-0.1-1.4-0.5c-0.4-0.4-0.6-0.9-0.6-1.5c0-1.2,0.8-2,2-2
		c0.9,0,1.7,0.6,1.8,1.5l-1.3,0.1l0,0c-0.1-0.3-0.1-0.6-0.4-0.6c-0.5,0-0.5,0.6-0.5,1c0,0.4,0,0.9,0.5,0.9c0.3,0,0.4-0.3,0.5-0.6
		L24.3,48.3z"/>
	<path class="st0" d="M26.8,49.8v-2.4c0-0.3-0.1-0.5-0.4-0.5c-0.1,0-0.3,0.1-0.4,0.2C26,47.2,26,47.4,26,47.5v2.3h-1.5v-5.1H26v1.8
		c0.3-0.3,0.6-0.5,1.1-0.5c0.4,0,0.8,0.1,1,0.4c0.2,0.3,0.2,0.7,0.2,1.1v2.4H26.8z"/>
	<path class="st0" d="M31.8,46.6c0-0.6-0.2-1.1-0.9-1.1c-0.8,0-0.9,1.1-0.9,1.7c0,0.7,0.1,1.6,1,1.6c0.6,0,0.8-0.5,0.9-1L33,48
		c-0.1,1.2-0.9,1.9-2.1,1.9c-1.5,0-2.3-1.2-2.3-2.6c0-1.4,0.8-2.6,2.3-2.6c1.3,0,1.9,0.7,2.1,2L31.8,46.6z"/>
	<path class="st0" d="M37,47.9c0,1.1-0.7,1.9-1.8,1.9c-1.2,0-1.8-0.9-1.8-2c0-1.1,0.6-2,1.8-2C36.4,45.9,37,46.8,37,47.9z
		 M34.6,47.8c0,0.4,0,1.4,0.6,1.4c0.6,0,0.7-0.7,0.7-1.2c0-0.3,0-0.7-0.1-0.9c-0.1-0.2-0.3-0.3-0.5-0.3
		C34.6,46.6,34.6,47.3,34.6,47.8z"/>
	<path class="st0" d="M39.7,49.8v-0.6h0c-0.2,0.4-0.5,0.7-1,0.7c-1.1,0-1.4-1-1.4-1.9c0-0.9,0.3-2,1.4-2c0.4,0,0.7,0.1,1,0.5v-1.7
		h1.1v5.1H39.7z M39.6,47.7c0-0.4,0-1-0.5-1c-0.6,0-0.7,0.8-0.7,1.3c0,0.4,0.1,1.1,0.6,1.1c0.2,0,0.4-0.1,0.5-0.3
		c0.1-0.2,0.1-0.4,0.1-0.6V47.7z"/>
	<path class="st0" d="M42.4,48.1l0,0.2c0,0.4,0.3,0.8,0.7,0.8c0.3,0,0.7-0.2,0.7-0.6l1,0.1c0,0.2-0.4,1.3-1.7,1.3
		c-1.1,0-1.9-0.8-1.9-1.9c0-1.1,0.7-2,1.8-2c0.5,0,1.1,0.2,1.4,0.7c0.3,0.4,0.4,1,0.4,1.5H42.4z M43.7,47.4c0-0.4-0.2-0.8-0.6-0.8
		c-0.5,0-0.7,0.4-0.7,0.8H43.7z"/>
</g>
<path class="st0" d="M47.3,44.6v0.4h-0.6v1.5h-0.6v-1.5h-0.6v-0.4H47.3z M48.4,44.6l0.4,1.1l0.4-1.1H50v1.9h-0.5v-1.4l-0.5,1.4h-0.2
	l-0.5-1.4v1.4h-0.5v-1.9H48.4z"/>
</svg>
